<svg width="27" height="18" viewBox="0 0 27 18" fill="none" xmlns="http://www.w3.org/2000/svg">
<path fill-rule="evenodd" clip-rule="evenodd" d="M18.6893 6.89341V3.66667C18.6893 1.91776 17.2716 0.5 15.5227 0.5H3.91154C2.16264 0.5 0.744873 1.91776 0.744873 3.66667V14.2222C0.744873 15.9711 2.16264 17.3889 3.91154 17.3889H15.5227C17.2716 17.3889 18.6893 15.9711 18.6893 14.2222V10.9957L24.4091 15.0813C24.7309 15.3111 25.1541 15.3418 25.5057 15.1609C25.8572 14.98 26.0782 14.6177 26.0782 14.2223V3.66677C26.0782 3.27138 25.8572 2.90913 25.5057 2.72821C25.1541 2.54728 24.7309 2.57801 24.4091 2.80783L18.6893 6.89341ZM2.85598 3.66667C2.85598 3.0837 3.32857 2.61111 3.91154 2.61111H15.5227C16.1056 2.61111 16.5782 3.0837 16.5782 3.66667V14.2222C16.5782 14.8052 16.1056 15.2778 15.5227 15.2778H3.91154C3.32857 15.2778 2.85598 14.8052 2.85598 14.2222V3.66667ZM23.9671 12.1712L19.4498 8.94455L23.9671 5.71792V12.1712Z" fill="#F5F9FF" fill-opacity="0.95"/>
</svg>
