<svg width="26" height="20" viewBox="0 0 26 20" fill="none" xmlns="http://www.w3.org/2000/svg">
<path d="M9.6703 13.2001C9.06088 13.2001 8.53757 13.0664 8.10037 12.7989C7.66583 12.5314 7.33064 12.162 7.09482 11.6906C6.86165 11.2166 6.74507 10.6711 6.74507 10.0541C6.74507 9.4344 6.8643 8.88755 7.10277 8.41353C7.34124 7.93686 7.67775 7.56611 8.1123 7.3013C8.54949 7.03383 9.06617 6.9001 9.66235 6.9001C10.1578 6.9001 10.5964 6.99146 10.9779 7.17418C11.3621 7.35426 11.6681 7.60981 11.896 7.94083C12.1239 8.2692 12.2537 8.65319 12.2855 9.09278H10.9103C10.8547 8.79884 10.7222 8.55388 10.5129 8.35792C10.3062 8.1593 10.0293 8.06 9.68222 8.06C9.38811 8.06 9.12977 8.13944 8.9072 8.29833C8.68462 8.45457 8.51107 8.67967 8.38654 8.97362C8.26465 9.26756 8.20371 9.61977 8.20371 10.0302C8.20371 10.446 8.26465 10.8035 8.38654 11.1027C8.50842 11.3993 8.67932 11.6284 8.89925 11.7899C9.12182 11.9488 9.38281 12.0283 9.68222 12.0283C9.8942 12.0283 10.0836 11.9886 10.2506 11.9091C10.4202 11.827 10.5619 11.7092 10.6758 11.5556C10.7898 11.402 10.8679 11.2153 10.9103 10.9955H12.2855C12.2511 11.4271 12.1239 11.8098 11.904 12.1435C11.684 12.4745 11.3846 12.734 11.0057 12.922C10.6268 13.1074 10.1817 13.2001 9.6703 13.2001Z" fill="white"/>
<path d="M16.1298 13.2001C15.5204 13.2001 14.9971 13.0664 14.5599 12.7989C14.1254 12.5314 13.7902 12.162 13.5544 11.6906C13.3212 11.2166 13.2046 10.6711 13.2046 10.0541C13.2046 9.4344 13.3239 8.88755 13.5623 8.41353C13.8008 7.93686 14.1373 7.56611 14.5718 7.3013C15.009 7.03383 15.5257 6.9001 16.1219 6.9001C16.6174 6.9001 17.0559 6.99146 17.4375 7.17418C17.8217 7.35426 18.1277 7.60981 18.3556 7.94083C18.5834 8.2692 18.7133 8.65319 18.7451 9.09278H17.3699C17.3142 8.79884 17.1818 8.55388 16.9724 8.35792C16.7658 8.1593 16.4889 8.06 16.1418 8.06C15.8477 8.06 15.5893 8.13944 15.3667 8.29833C15.1442 8.45457 14.9706 8.67967 14.8461 8.97362C14.7242 9.26756 14.6633 9.61977 14.6633 10.0302C14.6633 10.446 14.7242 10.8035 14.8461 11.1027C14.968 11.3993 15.1389 11.6284 15.3588 11.7899C15.5814 11.9488 15.8424 12.0283 16.1418 12.0283C16.3537 12.0283 16.5432 11.9886 16.7101 11.9091C16.8797 11.827 17.0215 11.7092 17.1354 11.5556C17.2493 11.402 17.3275 11.2153 17.3699 10.9955H18.7451C18.7106 11.4271 18.5834 11.8098 18.3635 12.1435C18.1436 12.4745 17.8442 12.734 17.4653 12.922C17.0864 13.1074 16.6412 13.2001 16.1298 13.2001Z" fill="white"/>
<path d="M6.14507 1.2001C3.32842 1.2001 1.04507 3.48345 1.04507 6.3001V13.5001C1.04507 16.3167 3.32842 18.6001 6.14507 18.6001H19.3451C22.1617 18.6001 24.4451 16.3167 24.4451 13.5001V6.3001C24.4451 3.48345 22.1617 1.2001 19.3451 1.2001H6.14507Z" stroke="white" stroke-width="1.8"/>
</svg>
