<svg width="22" height="23" viewBox="0 0 22 23" fill="none" xmlns="http://www.w3.org/2000/svg">
<path fill-rule="evenodd" clip-rule="evenodd" d="M3.27812 2.96683C2.99522 2.96683 2.72391 3.07921 2.52387 3.27925C2.32384 3.47928 2.21146 3.75059 2.21146 4.03349V18.525L4.65721 16.0792C4.85724 15.8792 5.12855 15.7668 5.41145 15.7668H18.2114C18.4943 15.7668 18.7656 15.6544 18.9657 15.4544C19.1657 15.2543 19.2781 14.983 19.2781 14.7001V4.03349C19.2781 3.75059 19.1657 3.47928 18.9657 3.27925C18.7656 3.07921 18.4943 2.96683 18.2114 2.96683H3.27812ZM1.01538 1.77075C1.6155 1.17064 2.42943 0.833496 3.27812 0.833496H18.2114C19.0601 0.833496 19.8741 1.17064 20.4742 1.77075C21.0743 2.37087 21.4114 3.1848 21.4114 4.03349V14.7001C21.4114 15.5488 21.0743 16.3628 20.4742 16.9629C19.8741 17.563 19.0601 17.9001 18.2114 17.9001H5.85328L1.89904 21.8544C1.59397 22.1594 1.13518 22.2507 0.736595 22.0856C0.33801 21.9205 0.078125 21.5316 0.078125 21.1001V4.03349C0.078125 3.1848 0.415266 2.37087 1.01538 1.77075Z" fill="#F5F9FF" fill-opacity="0.95"/>
</svg>
