<svg width="29" height="11" viewBox="0 0 29 11" fill="none" xmlns="http://www.w3.org/2000/svg">
<path fill-rule="evenodd" clip-rule="evenodd" d="M23.9168 0.968204C23.9492 0.972132 23.9813 0.977641 24.0132 0.98472C25.4063 1.29424 26.6523 2.06962 27.5453 3.18281C28.4383 4.29601 28.9249 5.68046 28.9249 7.10757V8.15023C28.9249 8.88152 28.6344 9.58285 28.1173 10.1C27.6002 10.6171 26.8988 10.9076 26.1675 10.9076H21.7742C21.0429 10.9076 20.3416 10.6171 19.8245 10.1C19.3074 9.58285 19.0169 8.88152 19.0169 8.15023C19.0169 7.94937 18.9371 7.75674 18.7951 7.61471C18.653 7.47269 18.4604 7.3929 18.2596 7.3929H11.2302C11.0294 7.3929 10.8368 7.47269 10.6947 7.61471C10.5527 7.75674 10.4729 7.94937 10.4729 8.15023C10.4729 8.88152 10.1824 9.58285 9.66532 10.1C9.14822 10.6171 8.44688 10.9076 7.71559 10.9076H3.32227C2.59098 10.9076 1.88964 10.6171 1.37255 10.1C0.855446 9.58285 0.564942 8.88152 0.564942 8.15023V7.10788M23.9168 0.968204C17.858 -0.197841 11.6325 -0.199046 5.57329 0.964652C5.54084 0.968581 5.50857 0.974103 5.4766 0.981205C4.08277 1.29088 2.83631 2.06688 1.94324 3.18093C1.05032 4.2948 0.564111 5.6803 0.564942 7.10788M5.70638 1.9574V2.0154L5.79259 2.40343L5.70638 1.9574ZM5.8957 2.93689C4.95226 3.14999 4.10888 3.67699 3.50373 4.43188C2.89544 5.19068 2.56427 6.13433 2.56494 7.10685L2.56494 8.15023C2.56494 8.35108 2.64473 8.54371 2.78676 8.68574C2.92879 8.82776 3.12141 8.90755 3.32227 8.90755H7.71559C7.91645 8.90755 8.10908 8.82776 8.2511 8.68574C8.39313 8.54371 8.47292 8.35108 8.47292 8.15023C8.47292 7.41894 8.76342 6.7176 9.28052 6.2005C9.79762 5.6834 10.499 5.3929 11.2302 5.3929H18.2596C18.9909 5.3929 19.6922 5.6834 20.2093 6.2005C20.7264 6.7176 21.0169 7.41894 21.0169 8.15023C21.0169 8.35108 21.0967 8.54371 21.2387 8.68574C21.3807 8.82776 21.5734 8.90755 21.7742 8.90755H26.1675C26.3684 8.90755 26.561 8.82776 26.7031 8.68574C26.8451 8.54371 26.9249 8.35108 26.9249 8.15023V7.10752C26.9249 6.13548 26.5934 5.1925 25.9852 4.43428C25.3888 3.69086 24.5614 3.16864 23.6349 2.94982C23.621 2.94773 23.6071 2.94535 23.5933 2.94267C17.7487 1.81063 11.7412 1.80947 5.89615 2.93923L5.8957 2.93689Z" fill="white" fill-opacity="0.98"/>
</svg>
