<svg width="12" height="10" viewBox="0 0 12 10" fill="none" xmlns="http://www.w3.org/2000/svg">
<path d="M6.00006 -7.75C4.14279 -7.75 2.62506 -6.23227 2.62506 -4.375V1.25C2.62506 3.10727 4.14279 4.625 6.00006 4.625C7.85733 4.625 9.37506 3.10727 9.37506 1.25V-4.375C9.37506 -6.23227 7.85733 -7.75 6.00006 -7.75ZM0.928768 -0.633057C0.779712 -0.630728 0.637675 -0.569331 0.533854 -0.462352C0.430033 -0.355372 0.37292 -0.211559 0.375058 -0.0625V1.25C0.375058 4.16019 2.60032 6.56305 5.43756 6.84644V8.5625C5.4365 8.63704 5.45027 8.71104 5.47807 8.78021C5.50586 8.84938 5.54713 8.91234 5.59947 8.96542C5.65181 9.0185 5.71417 9.06065 5.78294 9.08942C5.85171 9.11819 5.92551 9.13301 6.00006 9.13301C6.0746 9.13301 6.14841 9.11819 6.21718 9.08942C6.28594 9.06065 6.34831 9.0185 6.40065 8.96542C6.45298 8.91234 6.49425 8.84938 6.52205 8.78021C6.54984 8.71104 6.56361 8.63704 6.56256 8.5625V6.84644C9.39979 6.56305 11.6251 4.16019 11.6251 1.25V-0.0625C11.6261 -0.137038 11.6123 -0.211042 11.5845 -0.280211C11.5567 -0.349381 11.5155 -0.412337 11.4631 -0.46542C11.4108 -0.518503 11.3484 -0.560655 11.2797 -0.589425C11.2109 -0.618196 11.1371 -0.633012 11.0626 -0.633012C10.988 -0.633012 10.9142 -0.618196 10.8454 -0.589425C10.7767 -0.560655 10.7143 -0.518503 10.662 -0.46542C10.6096 -0.412337 10.5684 -0.349381 10.5406 -0.280211C10.5128 -0.211042 10.499 -0.137038 10.5001 -0.0625V1.25C10.5001 3.71951 8.52744 5.71053 6.06671 5.74634C6.04169 5.74318 6.01649 5.74172 5.99127 5.74194C5.9707 5.74228 5.95016 5.74375 5.92975 5.74634C3.47073 5.70859 1.50006 3.71828 1.50006 1.25V-0.0625C1.50114 -0.137787 1.48709 -0.212525 1.45876 -0.282285C1.43042 -0.352044 1.38837 -0.415404 1.33509 -0.468612C1.28182 -0.521819 1.2184 -0.56379 1.14861 -0.592037C1.07881 -0.620285 1.00405 -0.634233 0.928768 -0.633057Z" fill="#2D8CFF"/>
</svg>
