<svg width="22" height="26" viewBox="0 0 22 26" fill="none" xmlns="http://www.w3.org/2000/svg">
<path fill-rule="evenodd" clip-rule="evenodd" d="M11.534 1.78884C11.407 1.78884 11.2812 1.81385 11.1639 1.86246C11.0465 1.91106 10.9399 1.9823 10.8501 2.07211C10.7603 2.16192 10.6891 2.26854 10.6405 2.38588C10.5918 2.50322 10.5668 2.62899 10.5668 2.75599V12.8332C10.5668 13.2812 10.2037 13.6443 9.75566 13.6443C9.30767 13.6443 8.9445 13.2812 8.9445 12.8332V5.1271C8.9445 4.87059 8.8426 4.62459 8.66123 4.44321C8.47985 4.26183 8.23385 4.15994 7.97734 4.15994C7.72083 4.15994 7.47483 4.26183 7.29345 4.44321C7.11208 4.62459 7.01018 4.87059 7.01018 5.1271L7.01018 14.0187C7.01018 14.3468 6.81255 14.6426 6.50943 14.7681C6.20632 14.8937 5.85743 14.8243 5.62543 14.5923L3.883 12.8499C3.66189 12.6292 3.37306 12.4883 3.06295 12.4502C2.75269 12.4121 2.4386 12.4787 2.17055 12.6396C1.95452 12.7691 1.79729 12.9779 1.73275 13.2214C1.66821 13.4649 1.7012 13.7239 1.82471 13.9435C4.06125 17.919 5.34179 20.1499 5.69316 20.6893C5.76955 20.8069 5.84677 20.9251 5.92377 21.0423C6.49776 21.9136 7.27912 22.6288 8.19771 23.1237C9.11594 23.6183 10.1426 23.8773 11.1855 23.8775C11.1863 23.8775 11.187 23.8775 11.1877 23.8775H13.3123C14.9837 23.8775 16.5867 23.2135 17.7686 22.0317C18.9505 20.8498 19.6145 19.2468 19.6145 17.5754V7.4982C19.6145 7.24169 19.5126 6.99569 19.3312 6.81431C19.1498 6.63293 18.9038 6.53104 18.6473 6.53104C18.3908 6.53104 18.1448 6.63293 17.9634 6.81431C17.7828 6.9949 17.681 7.23955 17.6801 7.49485C17.6801 7.49597 17.6801 7.49708 17.6801 7.4982V12.8332C17.6801 13.2812 17.317 13.6443 16.869 13.6443C16.421 13.6443 16.0578 13.2812 16.0578 12.8332V7.4982C16.0578 7.49637 16.0578 7.49455 16.0578 7.49272L16.0578 5.1271C16.0578 4.87059 15.9559 4.62459 15.7745 4.44321C15.5932 4.26183 15.3472 4.15994 15.0906 4.15994C14.8341 4.15994 14.5881 4.26183 14.4068 4.44321C14.2402 4.60974 14.1407 4.83078 14.1255 5.06437C14.127 5.04216 14.1269 5.08033 14.1266 5.20187C14.1265 5.24155 14.1264 5.29012 14.1264 5.34838L14.1238 9.10178L14.1238 9.1372L14.1237 9.14099L14.1235 9.15214C14.1235 9.15218 14.1235 9.15209 14.1235 9.15214L14.1235 12.8332C14.1235 13.2812 13.7603 13.6443 13.3123 13.6443C12.8643 13.6443 12.5012 13.2812 12.5012 12.8332V2.75599C12.5012 2.62899 12.4761 2.50322 12.4275 2.38588C12.3789 2.26854 12.3077 2.16192 12.2179 2.07211C12.1281 1.9823 12.0214 1.91106 11.9041 1.86246C11.7868 1.81385 11.661 1.78884 11.534 1.78884ZM14.1237 9.12561C14.1237 9.12752 14.1238 9.12731 14.1237 9.12561V9.12561ZM14.1233 2.72508C14.1194 2.39554 14.0526 2.06969 13.9264 1.76504C13.7962 1.45087 13.6055 1.1654 13.365 0.924948C13.1246 0.684492 12.8391 0.493751 12.5249 0.363617C12.2108 0.233483 11.874 0.166504 11.534 0.166504C11.1939 0.166504 10.8572 0.233483 10.543 0.363617C10.2289 0.493751 9.9434 0.684492 9.70294 0.924948C9.46249 1.1654 9.27175 1.45087 9.14161 1.76504C9.01542 2.06969 8.94862 2.39554 8.94468 2.72508C8.6401 2.60241 8.31206 2.5376 7.97734 2.5376C7.29056 2.5376 6.63192 2.81042 6.14629 3.29605C5.66067 3.78167 5.38785 4.44032 5.38785 5.1271L5.38785 12.0604L5.02984 11.7024C4.5528 11.2259 3.92991 10.9221 3.2607 10.84C2.59158 10.7578 1.91419 10.9015 1.3361 11.2483M14.1233 2.72508C14.4279 2.60241 14.7559 2.5376 15.0906 2.5376C15.7774 2.5376 16.4361 2.81042 16.9217 3.29605C17.4 3.77438 17.6719 4.42057 17.68 5.09617C17.9845 4.97351 18.3126 4.9087 18.6473 4.9087C19.3341 4.9087 19.9927 5.18153 20.4783 5.66715C20.964 6.15277 21.2368 6.81142 21.2368 7.4982V17.5754C21.2368 19.6771 20.4019 21.6927 18.9158 23.1788C17.4296 24.6649 15.414 25.4998 13.3123 25.4998H11.1879C11.1879 25.4998 11.188 25.4998 11.1879 25.4998H10.9412C10.9018 25.4998 10.863 25.497 10.8251 25.4916C9.6382 25.4374 8.47702 25.1169 7.42829 24.5519C6.2729 23.9295 5.29018 23.0299 4.56838 21.9338C4.48985 21.8143 4.41116 21.6939 4.33325 21.5739C3.94418 20.9764 2.62853 18.6811 0.410787 14.7389C0.0801086 14.1512 -0.00822212 13.4576 0.164582 12.8057C0.337361 12.1539 0.757816 11.5951 1.3361 11.2483" fill="#F5F9FF" fill-opacity="0.95"/>
</svg>
