<svg width="22" height="21" viewBox="0 0 22 21" fill="none" xmlns="http://www.w3.org/2000/svg">
<path d="M0.390869 10.5002C0.390869 4.74719 5.05457 0.0834961 10.8075 0.0834961C16.5605 0.0834961 21.2242 4.74719 21.2242 10.5002C21.2242 16.2531 16.5605 20.9168 10.8075 20.9168C5.05457 20.9168 0.390869 16.2531 0.390869 10.5002ZM10.8075 1.53698C5.85731 1.53698 1.84436 5.54993 1.84436 10.5002C1.84436 15.4504 5.85731 19.4633 10.8075 19.4633C15.7578 19.4633 19.7707 15.4504 19.7707 10.5002C19.7707 5.54993 15.7578 1.53698 10.8075 1.53698Z" fill="white"/>
<path d="M8.6273 6.1397C8.6273 4.93557 9.6034 3.95947 10.8075 3.95947C12.0117 3.95947 12.9878 4.93557 12.9878 6.1397C12.9878 7.34383 12.0117 8.31993 10.8075 8.31993C9.6034 8.31993 8.6273 7.34383 8.6273 6.1397ZM10.8075 5.41295C10.4061 5.41295 10.0808 5.73831 10.0808 6.1397C10.0808 6.54109 10.4061 6.86644 10.8075 6.86644C11.2089 6.86644 11.5343 6.54109 11.5343 6.1397C11.5343 5.73831 11.2089 5.41295 10.8075 5.41295Z" fill="#FC5D5B"/>
<path d="M8.6273 14.8606C8.6273 13.6565 9.6034 12.6804 10.8075 12.6804C12.0117 12.6804 12.9878 13.6565 12.9878 14.8606C12.9878 16.0648 12.0117 17.0409 10.8075 17.0409C9.6034 17.0409 8.6273 16.0648 8.6273 14.8606ZM10.8075 14.1339C10.4061 14.1339 10.0808 14.4592 10.0808 14.8606C10.0808 15.262 10.4061 15.5874 10.8075 15.5874C11.2089 15.5874 11.5343 15.262 11.5343 14.8606C11.5343 14.4592 11.2089 14.1339 10.8075 14.1339Z" fill="#38C674"/>
<path d="M4.26684 10.5002C4.26684 9.29603 5.24294 8.31993 6.44707 8.31993C7.6512 8.31993 8.6273 9.29603 8.6273 10.5002C8.6273 11.7043 7.6512 12.6804 6.44707 12.6804C5.24294 12.6804 4.26684 11.7043 4.26684 10.5002ZM6.44707 9.77342C6.04568 9.77342 5.72033 10.0988 5.72033 10.5002C5.72033 10.9016 6.04568 11.2269 6.44707 11.2269C6.84846 11.2269 7.17381 10.9016 7.17381 10.5002C7.17381 10.0988 6.84846 9.77342 6.44707 9.77342Z" fill="white"/>
<path d="M12.9878 10.5002C12.9878 9.29603 13.9639 8.31993 15.168 8.31993C16.3721 8.31993 17.3482 9.29603 17.3482 10.5002C17.3482 11.7043 16.3721 12.6804 15.168 12.6804C13.9639 12.6804 12.9878 11.7043 12.9878 10.5002ZM15.168 9.77342C14.7666 9.77342 14.4413 10.0988 14.4413 10.5002C14.4413 10.9016 14.7666 11.2269 15.168 11.2269C15.5694 11.2269 15.8947 10.9016 15.8947 10.5002C15.8947 10.0988 15.5694 9.77342 15.168 9.77342Z" fill="#FFBD06"/>
<path d="M10.0808 20.1901C10.0808 19.7887 10.4062 19.4633 10.8075 19.4633H20.4975C20.8988 19.4633 21.2242 19.7887 21.2242 20.1901C21.2242 20.5915 20.8988 20.9168 20.4975 20.9168H10.8075C10.4062 20.9168 10.0808 20.5915 10.0808 20.1901Z" fill="white"/>
</svg>
