<svg width="26" height="21" viewBox="0 0 26 21" fill="none" xmlns="http://www.w3.org/2000/svg">
<path d="M25.2779 4.16667C25.2779 2.14162 23.6363 0.5 21.6113 0.5H4.41154C2.3865 0.5 0.744873 2.14162 0.744873 4.16666V14.3537C0.744873 16.3788 2.38649 18.0204 4.41154 18.0204H8.51134C9.06363 18.0204 9.51134 17.5727 9.51134 17.0204C9.51134 16.4681 9.06363 16.0204 8.51134 16.0204H4.41154C3.49106 16.0204 2.74487 15.2742 2.74487 14.3537L2.74487 4.16666C2.74487 3.24619 3.49106 2.5 4.41154 2.5L21.6113 2.5C22.5318 2.5 23.2779 3.24619 23.2779 4.16667V14.3537C23.2779 15.2742 22.5318 16.0204 21.6113 16.0204H18.0113C17.4591 16.0204 17.0113 16.4681 17.0113 17.0204C17.0113 17.5727 17.4591 18.0204 18.0113 18.0204H21.6113C23.6363 18.0204 25.2779 16.3788 25.2779 14.3537V4.16667Z" fill="#F5F9FF" fill-opacity="0.95"/>
<path d="M7.68843 11.2427C7.20668 11.7244 7.20668 12.5055 7.68844 12.9873C8.1702 13.469 8.95128 13.469 9.43304 12.9873L11.9532 10.4671V19.5853C11.9532 20.2666 12.5055 20.8189 13.1868 20.8189C13.8681 20.8189 14.4204 20.2666 14.4204 19.5853L14.4204 10.4671L16.9406 12.9873C17.4224 13.469 18.2034 13.469 18.6852 12.9873C19.167 12.5055 19.167 11.7244 18.6852 11.2427L14.0591 6.61656C13.8278 6.38521 13.514 6.25524 13.1868 6.25524C12.8596 6.25524 12.5459 6.38521 12.3145 6.61656L7.68843 11.2427Z" fill="#F5F9FF" fill-opacity="0.95"/>
</svg>
