<svg width="14" height="16" viewBox="0 0 14 16" fill="none" xmlns="http://www.w3.org/2000/svg">
<path d="M11.0427 0.6997C10.7764 0.433433 10.3447 0.433433 10.0785 0.6997C9.8122 0.965967 9.8122 1.39767 10.0785 1.66394L11.6418 3.22726H3.7424C2.83826 3.22726 1.97114 3.58643 1.33181 4.22576C0.692484 4.86509 0.333313 5.7322 0.333313 6.63635V7.31817C0.333313 7.69473 0.638573 7.99999 1.01513 7.99999C1.39169 7.99999 1.69695 7.69473 1.69695 7.31817V6.63635C1.69695 6.09386 1.91245 5.57359 2.29605 5.19C2.67965 4.8064 3.19992 4.5909 3.7424 4.5909H11.6418L10.0785 6.15425C9.8122 6.42051 9.8122 6.85222 10.0785 7.11848C10.3447 7.38475 10.7764 7.38475 11.0427 7.11848L13.77 4.39121C13.8948 4.2664 13.9611 4.10523 13.9689 3.9418C13.9694 3.9309 13.9697 3.92 13.9697 3.90909C13.9697 3.81296 13.9498 3.72147 13.9139 3.63853C13.8852 3.57214 13.8455 3.50938 13.7947 3.45304C13.7858 3.44316 13.7766 3.43354 13.7672 3.42419L11.0427 0.6997Z" fill="#F5F9FF" fill-opacity="0.95"/>
<path d="M4.22452 8.88153C4.49079 9.14779 4.49079 9.5795 4.22452 9.84576L2.6612 11.4091H10.5606C11.1031 11.4091 11.6233 11.1936 12.0069 10.81C12.3905 10.4264 12.606 9.90612 12.606 9.36364V8.68182C12.606 8.30526 12.9113 8 13.2879 8C13.6644 8 13.9697 8.30526 13.9697 8.68182V9.36364C13.9697 10.2678 13.6105 11.1349 12.9712 11.7742C12.3318 12.4136 11.4647 12.7727 10.5606 12.7727H2.66118L4.22452 14.3361C4.49079 14.6023 4.49079 15.034 4.22452 15.3003C3.95826 15.5666 3.52655 15.5666 3.26029 15.3003L0.533013 12.573C0.399876 12.4399 0.333309 12.2654 0.333313 12.0909C0.333313 11.997 0.352302 11.9075 0.38665 11.8261C0.416532 11.7551 0.458969 11.6882 0.513963 11.6286C0.52087 11.6211 0.527943 11.6138 0.535175 11.6066L3.26029 8.88153C3.52655 8.61526 3.95826 8.61526 4.22452 8.88153Z" fill="#F5F9FF" fill-opacity="0.95"/>
</svg>
