<svg width="25" height="26" viewBox="0 0 25 26" fill="none" xmlns="http://www.w3.org/2000/svg">
<path d="M8.24487 18.1667C8.24487 18.903 7.64792 19.5 6.91154 19.5C6.17516 19.5 5.57821 18.903 5.57821 18.1667C5.57821 17.4303 6.17516 16.8333 6.91154 16.8333C7.64792 16.8333 8.24487 17.4303 8.24487 18.1667Z" fill="#F5F9FF" fill-opacity="0.95"/>
<path d="M17.5782 19.5C18.3146 19.5 18.9115 18.903 18.9115 18.1667C18.9115 17.4303 18.3146 16.8333 17.5782 16.8333C16.8418 16.8333 16.2449 17.4303 16.2449 18.1667C16.2449 18.903 16.8418 19.5 17.5782 19.5Z" fill="#F5F9FF" fill-opacity="0.95"/>
<path fill-rule="evenodd" clip-rule="evenodd" d="M8.57821 4.16667C8.57821 2.14162 10.2198 0.5 12.2449 0.5C14.2699 0.5 15.9115 2.14162 15.9115 4.16667C15.9115 5.96405 14.6183 7.45937 12.9115 7.77287V10.8333H20.2449C22.454 10.8333 24.2449 12.6242 24.2449 14.8333V21.5C24.2449 23.7091 22.454 25.5 20.2449 25.5H4.24487C2.03573 25.5 0.244873 23.7091 0.244873 21.5V14.8333C0.244873 12.6242 2.03573 10.8333 4.24487 10.8333H11.5782V7.77287C9.87146 7.45937 8.57821 5.96405 8.57821 4.16667ZM12.2449 2.5C11.3244 2.5 10.5782 3.24619 10.5782 4.16667C10.5782 5.08714 11.3244 5.83333 12.2449 5.83333C13.1653 5.83333 13.9115 5.08714 13.9115 4.16667C13.9115 3.24619 13.1653 2.5 12.2449 2.5ZM4.24487 12.8333C3.1403 12.8333 2.24487 13.7288 2.24487 14.8333V21.5C2.24487 22.6046 3.1403 23.5 4.24487 23.5H20.2449C21.3494 23.5 22.2449 22.6046 22.2449 21.5V14.8333C22.2449 13.7288 21.3494 12.8333 20.2449 12.8333H4.24487Z" fill="#F5F9FF" fill-opacity="0.95"/>
</svg>
