<svg width="16" height="19" viewBox="0 0 16 19" fill="none" xmlns="http://www.w3.org/2000/svg">
<path d="M14.622 4.69994H8.75536C8.18957 4.69994 7.64694 4.92471 7.24687 5.32478C6.84679 5.72486 6.62203 6.26748 6.62203 6.83328V9.49994M14.622 4.69994L11.4221 7.9M14.622 4.69994L11.4221 1.5M12.4887 11.1001V16.4334C12.4887 16.7163 12.3763 16.9876 12.1763 17.1877C11.9762 17.3877 11.7049 17.5001 11.422 17.5001H1.82204C1.53914 17.5001 1.26783 17.3877 1.06779 17.1877C0.867752 16.9876 0.755371 16.7163 0.755371 16.4334V7.90009C0.755371 7.6172 0.867752 7.34588 1.06779 7.14585C1.26783 6.94581 1.53914 6.83343 1.82204 6.83343H3.42204" stroke="white" stroke-width="1.5" stroke-linecap="round" stroke-linejoin="round"/>
</svg>
