<svg width="6" height="25" viewBox="0 0 6 25" fill="none" xmlns="http://www.w3.org/2000/svg">
<path d="M2.74479 5.8375C4.24165 5.8375 5.41146 4.6625 5.41146 3.1625C5.41146 1.6875 4.21649 0.5 2.74479 0.5C1.28567 0.5 0.0781259 1.6875 0.0781258 3.1625C0.0781258 4.625 1.28567 5.8375 2.74479 5.8375ZM2.74479 15.1375C4.24165 15.1375 5.41146 13.975 5.41146 12.5C5.41146 11.0375 4.21649 9.85 2.74479 9.85C1.28567 9.85 0.0781255 11.0375 0.0781254 12.5C0.0781253 13.95 1.28567 15.1375 2.74479 15.1375ZM2.74479 24.5C4.24165 24.5 5.41146 23.325 5.41146 21.8375C5.41146 20.35 4.21649 19.1625 2.74479 19.1625C1.28567 19.1625 0.0781251 20.35 0.078125 21.8375C0.0781249 23.2875 1.28567 24.5 2.74479 24.5Z" fill="#F5F9FF" fill-opacity="0.95"/>
</svg>
